<mxfile host="Electron" modified="2023-10-10T03:50:34.778Z" agent="Mozilla/5.0 (Windows NT 10.0; Win64; x64) AppleWebKit/537.36 (KHTML, like Gecko) draw.io/21.7.5 Chrome/114.0.5735.289 Electron/25.8.1 Safari/537.36" etag="9aiov8u4AFkkDDsyeYcc" version="21.7.5" type="device">
  <diagram name="Page-1" id="ew41dSETAx2gVhHEuHSO">
    <mxGraphModel dx="1674" dy="844" grid="1" gridSize="10" guides="1" tooltips="1" connect="1" arrows="1" fold="1" page="1" pageScale="1" pageWidth="850" pageHeight="1100" math="0" shadow="0">
      <root>
        <mxCell id="0" />
        <mxCell id="1" parent="0" />
        <mxCell id="ytdvgjBJLJZFRaAoDnim-1" value="LexicalAnalyzer" style="swimlane;fontStyle=1;align=center;verticalAlign=top;childLayout=stackLayout;horizontal=1;startSize=26;horizontalStack=0;resizeParent=1;resizeParentMax=0;resizeLast=0;collapsible=1;marginBottom=0;whiteSpace=wrap;html=1;" vertex="1" parent="1">
          <mxGeometry x="400" y="308" width="290" height="114" as="geometry" />
        </mxCell>
        <mxCell id="ytdvgjBJLJZFRaAoDnim-2" value="+ transitionMatrix: TransitionMatrix&lt;br&gt;+ state:&amp;nbsp;LexicalAnalyzerState&lt;br&gt;+&amp;nbsp;symbolTable:&amp;nbsp;SymbolTable" style="text;strokeColor=none;fillColor=none;align=left;verticalAlign=top;spacingLeft=4;spacingRight=4;overflow=hidden;rotatable=0;points=[[0,0.5],[1,0.5]];portConstraint=eastwest;whiteSpace=wrap;html=1;" vertex="1" parent="ytdvgjBJLJZFRaAoDnim-1">
          <mxGeometry y="26" width="290" height="54" as="geometry" />
        </mxCell>
        <mxCell id="ytdvgjBJLJZFRaAoDnim-3" value="" style="line;strokeWidth=1;fillColor=none;align=left;verticalAlign=middle;spacingTop=-1;spacingLeft=3;spacingRight=3;rotatable=0;labelPosition=right;points=[];portConstraint=eastwest;strokeColor=inherit;" vertex="1" parent="ytdvgjBJLJZFRaAoDnim-1">
          <mxGeometry y="80" width="290" height="8" as="geometry" />
        </mxCell>
        <mxCell id="ytdvgjBJLJZFRaAoDnim-4" value="+ getToken(): int" style="text;strokeColor=none;fillColor=none;align=left;verticalAlign=top;spacingLeft=4;spacingRight=4;overflow=hidden;rotatable=0;points=[[0,0.5],[1,0.5]];portConstraint=eastwest;whiteSpace=wrap;html=1;" vertex="1" parent="ytdvgjBJLJZFRaAoDnim-1">
          <mxGeometry y="88" width="290" height="26" as="geometry" />
        </mxCell>
        <mxCell id="ytdvgjBJLJZFRaAoDnim-5" value="&lt;p style=&quot;margin:0px;margin-top:4px;text-align:center;&quot;&gt;&lt;i&gt;&amp;lt;&amp;lt;Interface&amp;gt;&amp;gt;&lt;/i&gt;&lt;br&gt;&lt;b&gt;SemanticAction&lt;/b&gt;&lt;/p&gt;&lt;hr size=&quot;1&quot;&gt;&lt;p style=&quot;margin:0px;margin-left:4px;&quot;&gt;+ run(LexicalAnalyzerState, SymbolTable)&lt;/p&gt;" style="verticalAlign=top;align=left;overflow=fill;fontSize=12;fontFamily=Helvetica;html=1;whiteSpace=wrap;" vertex="1" parent="1">
          <mxGeometry x="110" y="330" width="250" height="70" as="geometry" />
        </mxCell>
        <mxCell id="ytdvgjBJLJZFRaAoDnim-6" value="SemanticAction1" style="swimlane;fontStyle=1;align=center;verticalAlign=top;childLayout=stackLayout;horizontal=1;startSize=26;horizontalStack=0;resizeParent=1;resizeParentMax=0;resizeLast=0;collapsible=1;marginBottom=0;whiteSpace=wrap;html=1;" vertex="1" parent="1">
          <mxGeometry x="105" y="560" width="260" height="52" as="geometry" />
        </mxCell>
        <mxCell id="ytdvgjBJLJZFRaAoDnim-9" value="+ run(LexicalAnalyzerState, SymbolTable)" style="text;strokeColor=none;fillColor=none;align=left;verticalAlign=top;spacingLeft=4;spacingRight=4;overflow=hidden;rotatable=0;points=[[0,0.5],[1,0.5]];portConstraint=eastwest;whiteSpace=wrap;html=1;" vertex="1" parent="ytdvgjBJLJZFRaAoDnim-6">
          <mxGeometry y="26" width="260" height="26" as="geometry" />
        </mxCell>
        <mxCell id="ytdvgjBJLJZFRaAoDnim-10" value="SemanticAction9" style="swimlane;fontStyle=1;align=center;verticalAlign=top;childLayout=stackLayout;horizontal=1;startSize=26;horizontalStack=0;resizeParent=1;resizeParentMax=0;resizeLast=0;collapsible=1;marginBottom=0;whiteSpace=wrap;html=1;" vertex="1" parent="1">
          <mxGeometry x="105" y="680" width="260" height="52" as="geometry" />
        </mxCell>
        <mxCell id="ytdvgjBJLJZFRaAoDnim-11" value="+ run(LexicalAnalyzerState, SymbolTable)" style="text;strokeColor=none;fillColor=none;align=left;verticalAlign=top;spacingLeft=4;spacingRight=4;overflow=hidden;rotatable=0;points=[[0,0.5],[1,0.5]];portConstraint=eastwest;whiteSpace=wrap;html=1;" vertex="1" parent="ytdvgjBJLJZFRaAoDnim-10">
          <mxGeometry y="26" width="260" height="26" as="geometry" />
        </mxCell>
        <mxCell id="ytdvgjBJLJZFRaAoDnim-12" value="..." style="swimlane;fontStyle=1;align=center;verticalAlign=top;childLayout=stackLayout;horizontal=1;startSize=26;horizontalStack=0;resizeParent=1;resizeParentMax=0;resizeLast=0;collapsible=1;marginBottom=0;whiteSpace=wrap;html=1;" vertex="1" parent="1">
          <mxGeometry x="105" y="620" width="260" height="52" as="geometry" />
        </mxCell>
        <mxCell id="ytdvgjBJLJZFRaAoDnim-13" value="+ run(LexicalAnalyzerState, SymbolTable)" style="text;strokeColor=none;fillColor=none;align=left;verticalAlign=top;spacingLeft=4;spacingRight=4;overflow=hidden;rotatable=0;points=[[0,0.5],[1,0.5]];portConstraint=eastwest;whiteSpace=wrap;html=1;" vertex="1" parent="ytdvgjBJLJZFRaAoDnim-12">
          <mxGeometry y="26" width="260" height="26" as="geometry" />
        </mxCell>
        <mxCell id="ytdvgjBJLJZFRaAoDnim-14" value="" style="endArrow=block;dashed=1;endFill=0;endSize=12;html=1;rounded=0;" edge="1" parent="1" source="ytdvgjBJLJZFRaAoDnim-6" target="ytdvgjBJLJZFRaAoDnim-5">
          <mxGeometry width="160" relative="1" as="geometry">
            <mxPoint x="310" y="490" as="sourcePoint" />
            <mxPoint x="470" y="490" as="targetPoint" />
          </mxGeometry>
        </mxCell>
        <mxCell id="ytdvgjBJLJZFRaAoDnim-15" value="" style="endArrow=block;dashed=1;endFill=0;endSize=12;html=1;rounded=0;" edge="1" parent="1" source="ytdvgjBJLJZFRaAoDnim-12" target="ytdvgjBJLJZFRaAoDnim-5">
          <mxGeometry width="160" relative="1" as="geometry">
            <mxPoint x="245" y="570" as="sourcePoint" />
            <mxPoint x="245" y="430" as="targetPoint" />
            <Array as="points">
              <mxPoint x="80" y="646" />
              <mxPoint x="80" y="380" />
            </Array>
          </mxGeometry>
        </mxCell>
        <mxCell id="ytdvgjBJLJZFRaAoDnim-16" value="" style="endArrow=block;dashed=1;endFill=0;endSize=12;html=1;rounded=0;" edge="1" parent="1" source="ytdvgjBJLJZFRaAoDnim-10" target="ytdvgjBJLJZFRaAoDnim-5">
          <mxGeometry width="160" relative="1" as="geometry">
            <mxPoint x="245" y="570" as="sourcePoint" />
            <mxPoint x="245" y="430" as="targetPoint" />
            <Array as="points">
              <mxPoint x="40" y="706" />
              <mxPoint x="40" y="360" />
            </Array>
          </mxGeometry>
        </mxCell>
        <mxCell id="ytdvgjBJLJZFRaAoDnim-17" value="TransitionMatrix" style="swimlane;fontStyle=1;align=center;verticalAlign=top;childLayout=stackLayout;horizontal=1;startSize=26;horizontalStack=0;resizeParent=1;resizeParentMax=0;resizeLast=0;collapsible=1;marginBottom=0;whiteSpace=wrap;html=1;" vertex="1" parent="1">
          <mxGeometry x="400" y="490" width="290" height="84" as="geometry" />
        </mxCell>
        <mxCell id="ytdvgjBJLJZFRaAoDnim-18" value="- matrix: Vector" style="text;strokeColor=none;fillColor=none;align=left;verticalAlign=top;spacingLeft=4;spacingRight=4;overflow=hidden;rotatable=0;points=[[0,0.5],[1,0.5]];portConstraint=eastwest;whiteSpace=wrap;html=1;" vertex="1" parent="ytdvgjBJLJZFRaAoDnim-17">
          <mxGeometry y="26" width="290" height="24" as="geometry" />
        </mxCell>
        <mxCell id="ytdvgjBJLJZFRaAoDnim-19" value="" style="line;strokeWidth=1;fillColor=none;align=left;verticalAlign=middle;spacingTop=-1;spacingLeft=3;spacingRight=3;rotatable=0;labelPosition=right;points=[];portConstraint=eastwest;strokeColor=inherit;" vertex="1" parent="ytdvgjBJLJZFRaAoDnim-17">
          <mxGeometry y="50" width="290" height="8" as="geometry" />
        </mxCell>
        <mxCell id="ytdvgjBJLJZFRaAoDnim-20" value="+ getTransition(state: int, c: char): Transition" style="text;strokeColor=none;fillColor=none;align=left;verticalAlign=top;spacingLeft=4;spacingRight=4;overflow=hidden;rotatable=0;points=[[0,0.5],[1,0.5]];portConstraint=eastwest;whiteSpace=wrap;html=1;" vertex="1" parent="ytdvgjBJLJZFRaAoDnim-17">
          <mxGeometry y="58" width="290" height="26" as="geometry" />
        </mxCell>
        <mxCell id="ytdvgjBJLJZFRaAoDnim-21" value="LexicalAnalyzerState" style="swimlane;fontStyle=1;align=center;verticalAlign=top;childLayout=stackLayout;horizontal=1;startSize=26;horizontalStack=0;resizeParent=1;resizeParentMax=0;resizeLast=0;collapsible=1;marginBottom=0;whiteSpace=wrap;html=1;" vertex="1" parent="1">
          <mxGeometry x="160" y="160" width="150" height="84" as="geometry" />
        </mxCell>
        <mxCell id="ytdvgjBJLJZFRaAoDnim-22" value="&lt;b&gt;...&lt;/b&gt;" style="text;strokeColor=none;fillColor=none;align=left;verticalAlign=top;spacingLeft=4;spacingRight=4;overflow=hidden;rotatable=0;points=[[0,0.5],[1,0.5]];portConstraint=eastwest;whiteSpace=wrap;html=1;" vertex="1" parent="ytdvgjBJLJZFRaAoDnim-21">
          <mxGeometry y="26" width="150" height="24" as="geometry" />
        </mxCell>
        <mxCell id="ytdvgjBJLJZFRaAoDnim-23" value="" style="line;strokeWidth=1;fillColor=none;align=left;verticalAlign=middle;spacingTop=-1;spacingLeft=3;spacingRight=3;rotatable=0;labelPosition=right;points=[];portConstraint=eastwest;strokeColor=inherit;" vertex="1" parent="ytdvgjBJLJZFRaAoDnim-21">
          <mxGeometry y="50" width="150" height="8" as="geometry" />
        </mxCell>
        <mxCell id="ytdvgjBJLJZFRaAoDnim-24" value="&lt;b&gt;...&lt;/b&gt;" style="text;strokeColor=none;fillColor=none;align=left;verticalAlign=top;spacingLeft=4;spacingRight=4;overflow=hidden;rotatable=0;points=[[0,0.5],[1,0.5]];portConstraint=eastwest;whiteSpace=wrap;html=1;" vertex="1" parent="ytdvgjBJLJZFRaAoDnim-21">
          <mxGeometry y="58" width="150" height="26" as="geometry" />
        </mxCell>
        <mxCell id="ytdvgjBJLJZFRaAoDnim-25" value="" style="endArrow=open;endSize=12;dashed=1;html=1;rounded=0;" edge="1" parent="1" source="ytdvgjBJLJZFRaAoDnim-5" target="ytdvgjBJLJZFRaAoDnim-21">
          <mxGeometry width="160" relative="1" as="geometry">
            <mxPoint x="350" y="380" as="sourcePoint" />
            <mxPoint x="510" y="380" as="targetPoint" />
          </mxGeometry>
        </mxCell>
        <mxCell id="ytdvgjBJLJZFRaAoDnim-26" value="" style="endArrow=open;endFill=1;endSize=12;html=1;rounded=0;" edge="1" parent="1" source="ytdvgjBJLJZFRaAoDnim-1" target="ytdvgjBJLJZFRaAoDnim-21">
          <mxGeometry width="160" relative="1" as="geometry">
            <mxPoint x="350" y="470" as="sourcePoint" />
            <mxPoint x="510" y="470" as="targetPoint" />
            <Array as="points">
              <mxPoint x="545" y="202" />
            </Array>
          </mxGeometry>
        </mxCell>
        <mxCell id="ytdvgjBJLJZFRaAoDnim-27" value="SymbolTable" style="swimlane;fontStyle=1;align=center;verticalAlign=top;childLayout=stackLayout;horizontal=1;startSize=26;horizontalStack=0;resizeParent=1;resizeParentMax=0;resizeLast=0;collapsible=1;marginBottom=0;whiteSpace=wrap;html=1;" vertex="1" parent="1">
          <mxGeometry x="730" y="410" width="290" height="100" as="geometry" />
        </mxCell>
        <mxCell id="ytdvgjBJLJZFRaAoDnim-28" value="- table: HashMap" style="text;strokeColor=none;fillColor=none;align=left;verticalAlign=top;spacingLeft=4;spacingRight=4;overflow=hidden;rotatable=0;points=[[0,0.5],[1,0.5]];portConstraint=eastwest;whiteSpace=wrap;html=1;" vertex="1" parent="ytdvgjBJLJZFRaAoDnim-27">
          <mxGeometry y="26" width="290" height="24" as="geometry" />
        </mxCell>
        <mxCell id="ytdvgjBJLJZFRaAoDnim-29" value="" style="line;strokeWidth=1;fillColor=none;align=left;verticalAlign=middle;spacingTop=-1;spacingLeft=3;spacingRight=3;rotatable=0;labelPosition=right;points=[];portConstraint=eastwest;strokeColor=inherit;" vertex="1" parent="ytdvgjBJLJZFRaAoDnim-27">
          <mxGeometry y="50" width="290" height="8" as="geometry" />
        </mxCell>
        <mxCell id="ytdvgjBJLJZFRaAoDnim-30" value="+ addNewEntry(entry:&amp;nbsp;SymbolTableEntry)&lt;br&gt;+ getEntry(key: String): SymbolTableEntry&lt;br&gt;&lt;div style=&quot;background-color:#2f2f2f;padding:0px 0px 0px 2px;&quot;&gt;&lt;div style=&quot;color: rgb(170, 170, 170); font-family: Consolas; font-size: 16pt;&quot;&gt;&lt;p style=&quot;background-color:#373737;margin:0;&quot;&gt;&lt;span style=&quot;color:#f9faf4;&quot;&gt;&lt;/span&gt;&lt;/p&gt;&lt;/div&gt;&lt;/div&gt;" style="text;strokeColor=none;fillColor=none;align=left;verticalAlign=top;spacingLeft=4;spacingRight=4;overflow=hidden;rotatable=0;points=[[0,0.5],[1,0.5]];portConstraint=eastwest;whiteSpace=wrap;html=1;" vertex="1" parent="ytdvgjBJLJZFRaAoDnim-27">
          <mxGeometry y="58" width="290" height="42" as="geometry" />
        </mxCell>
        <mxCell id="ytdvgjBJLJZFRaAoDnim-31" value="" style="endArrow=open;endFill=1;endSize=12;html=1;rounded=0;" edge="1" parent="1" source="ytdvgjBJLJZFRaAoDnim-1" target="ytdvgjBJLJZFRaAoDnim-27">
          <mxGeometry width="160" relative="1" as="geometry">
            <mxPoint x="554" y="318" as="sourcePoint" />
            <mxPoint x="390" y="222" as="targetPoint" />
            <Array as="points">
              <mxPoint x="875" y="365" />
            </Array>
          </mxGeometry>
        </mxCell>
        <mxCell id="ytdvgjBJLJZFRaAoDnim-32" value="" style="endArrow=open;endFill=1;endSize=12;html=1;rounded=0;" edge="1" parent="1" source="ytdvgjBJLJZFRaAoDnim-1" target="ytdvgjBJLJZFRaAoDnim-17">
          <mxGeometry width="160" relative="1" as="geometry">
            <mxPoint x="700" y="355" as="sourcePoint" />
            <mxPoint x="856" y="420" as="targetPoint" />
            <Array as="points" />
          </mxGeometry>
        </mxCell>
        <mxCell id="ytdvgjBJLJZFRaAoDnim-34" value="SymbolTableEntry" style="swimlane;fontStyle=1;align=center;verticalAlign=top;childLayout=stackLayout;horizontal=1;startSize=26;horizontalStack=0;resizeParent=1;resizeParentMax=0;resizeLast=0;collapsible=1;marginBottom=0;whiteSpace=wrap;html=1;" vertex="1" parent="1">
          <mxGeometry x="730" y="570" width="290" height="110" as="geometry" />
        </mxCell>
        <mxCell id="ytdvgjBJLJZFRaAoDnim-35" value="- tokenID: int&lt;br&gt;- lexeme: String&lt;br&gt;- location: TokenLocation" style="text;strokeColor=none;fillColor=none;align=left;verticalAlign=top;spacingLeft=4;spacingRight=4;overflow=hidden;rotatable=0;points=[[0,0.5],[1,0.5]];portConstraint=eastwest;whiteSpace=wrap;html=1;" vertex="1" parent="ytdvgjBJLJZFRaAoDnim-34">
          <mxGeometry y="26" width="290" height="54" as="geometry" />
        </mxCell>
        <mxCell id="ytdvgjBJLJZFRaAoDnim-36" value="" style="line;strokeWidth=1;fillColor=none;align=left;verticalAlign=middle;spacingTop=-1;spacingLeft=3;spacingRight=3;rotatable=0;labelPosition=right;points=[];portConstraint=eastwest;strokeColor=inherit;" vertex="1" parent="ytdvgjBJLJZFRaAoDnim-34">
          <mxGeometry y="80" width="290" height="8" as="geometry" />
        </mxCell>
        <mxCell id="ytdvgjBJLJZFRaAoDnim-37" value="&lt;b&gt;...&lt;/b&gt;&lt;br&gt;&lt;div style=&quot;background-color:#2f2f2f;padding:0px 0px 0px 2px;&quot;&gt;&lt;div style=&quot;color: rgb(170, 170, 170); font-family: Consolas; font-size: 16pt;&quot;&gt;&lt;p style=&quot;background-color:#373737;margin:0;&quot;&gt;&lt;span style=&quot;color:#f9faf4;&quot;&gt;&lt;/span&gt;&lt;/p&gt;&lt;/div&gt;&lt;/div&gt;" style="text;strokeColor=none;fillColor=none;align=left;verticalAlign=top;spacingLeft=4;spacingRight=4;overflow=hidden;rotatable=0;points=[[0,0.5],[1,0.5]];portConstraint=eastwest;whiteSpace=wrap;html=1;" vertex="1" parent="ytdvgjBJLJZFRaAoDnim-34">
          <mxGeometry y="88" width="290" height="22" as="geometry" />
        </mxCell>
        <mxCell id="ytdvgjBJLJZFRaAoDnim-38" value="" style="endArrow=open;endFill=1;endSize=12;html=1;rounded=0;" edge="1" parent="1" source="ytdvgjBJLJZFRaAoDnim-27" target="ytdvgjBJLJZFRaAoDnim-34">
          <mxGeometry width="160" relative="1" as="geometry">
            <mxPoint x="700" y="355" as="sourcePoint" />
            <mxPoint x="856" y="420" as="targetPoint" />
            <Array as="points" />
          </mxGeometry>
        </mxCell>
        <mxCell id="ytdvgjBJLJZFRaAoDnim-39" value="TokenLocation" style="swimlane;fontStyle=1;align=center;verticalAlign=top;childLayout=stackLayout;horizontal=1;startSize=26;horizontalStack=0;resizeParent=1;resizeParentMax=0;resizeLast=0;collapsible=1;marginBottom=0;whiteSpace=wrap;html=1;" vertex="1" parent="1">
          <mxGeometry x="815" y="740" width="120" height="80" as="geometry" />
        </mxCell>
        <mxCell id="ytdvgjBJLJZFRaAoDnim-40" value="&lt;b&gt;...&lt;/b&gt;" style="text;strokeColor=none;fillColor=none;align=left;verticalAlign=top;spacingLeft=4;spacingRight=4;overflow=hidden;rotatable=0;points=[[0,0.5],[1,0.5]];portConstraint=eastwest;whiteSpace=wrap;html=1;" vertex="1" parent="ytdvgjBJLJZFRaAoDnim-39">
          <mxGeometry y="26" width="120" height="24" as="geometry" />
        </mxCell>
        <mxCell id="ytdvgjBJLJZFRaAoDnim-41" value="" style="line;strokeWidth=1;fillColor=none;align=left;verticalAlign=middle;spacingTop=-1;spacingLeft=3;spacingRight=3;rotatable=0;labelPosition=right;points=[];portConstraint=eastwest;strokeColor=inherit;" vertex="1" parent="ytdvgjBJLJZFRaAoDnim-39">
          <mxGeometry y="50" width="120" height="8" as="geometry" />
        </mxCell>
        <mxCell id="ytdvgjBJLJZFRaAoDnim-42" value="&lt;div style=&quot;text-align: center;&quot;&gt;&lt;b style=&quot;background-color: initial; border-color: var(--border-color);&quot;&gt;...&lt;/b&gt;&lt;/div&gt;&lt;div style=&quot;background-color:#2f2f2f;padding:0px 0px 0px 2px;&quot;&gt;&lt;div style=&quot;color: rgb(170, 170, 170); font-family: Consolas; font-size: 16pt;&quot;&gt;&lt;p style=&quot;background-color:#373737;margin:0;&quot;&gt;&lt;span style=&quot;color:#f9faf4;&quot;&gt;&lt;/span&gt;&lt;/p&gt;&lt;/div&gt;&lt;/div&gt;" style="text;strokeColor=none;fillColor=none;align=left;verticalAlign=top;spacingLeft=4;spacingRight=4;overflow=hidden;rotatable=0;points=[[0,0.5],[1,0.5]];portConstraint=eastwest;whiteSpace=wrap;html=1;" vertex="1" parent="ytdvgjBJLJZFRaAoDnim-39">
          <mxGeometry y="58" width="120" height="22" as="geometry" />
        </mxCell>
        <mxCell id="ytdvgjBJLJZFRaAoDnim-43" value="" style="endArrow=open;endFill=1;endSize=12;html=1;rounded=0;" edge="1" parent="1" source="ytdvgjBJLJZFRaAoDnim-34" target="ytdvgjBJLJZFRaAoDnim-39">
          <mxGeometry width="160" relative="1" as="geometry">
            <mxPoint x="885" y="520" as="sourcePoint" />
            <mxPoint x="885" y="580" as="targetPoint" />
            <Array as="points" />
          </mxGeometry>
        </mxCell>
      </root>
    </mxGraphModel>
  </diagram>
</mxfile>
